<svg width="218" height="164" viewBox="0 0 218 164" fill="none" xmlns="http://www.w3.org/2000/svg">
<path d="M13.5458 161.836C9.68742 147.689 11.086 130.118 12.1339 115.773C13.7047 94.2692 20.1756 73.1628 32.6948 55.4141C44.8457 38.1875 62.0511 26.1354 82.5526 21.1754C86.4715 20.2273 98.3812 15.9119 99.1425 22.7638C99.8743 29.3494 99.4317 36.7392 98.2601 43.2364C97.2287 48.956 89.3729 63.866 89.0827 58.0614C88.75 51.4067 110.9 35.6775 115.203 31.8529C126.656 21.6726 139.016 13.6795 153.324 8.11525C169.691 1.75039 199.017 -4.05464 209.977 14.8218C225.038 40.7598 211.783 75.3877 189.063 91.0647C155.859 113.975 115.659 119.265 77.4345 128.48C61.6297 132.29 14.7158 143.588 1.5 153.5" stroke="#fff" stroke-width="3" stroke-linecap="round"/>
</svg>
